<svg width="104" height="26" viewBox="0 0 104 26" fill="none" xmlns="http://www.w3.org/2000/svg">
<rect x="0.5" y="1.17188" width="103" height="23.6406" stroke="black"/>
<g clip-path="url(#clip0_1_33)">
<path d="M63.1916 12.5957C63.1916 6.19161 58 1 51.5957 1C45.1916 1 40 6.19161 40 12.5957C40 18.3835 44.2404 23.1808 49.7839 24.0508V15.9477H46.8397V12.5957H49.7839V10.0411C49.7839 7.1349 51.5152 5.52961 54.1638 5.52961C55.4321 5.52961 56.7596 5.75609 56.7596 5.75609V8.60974H55.2974C53.8569 8.60974 53.4076 9.50365 53.4076 10.4216V12.5957H56.6236L56.1096 15.9477H53.4076V24.0508C58.9512 23.1808 63.1916 18.3835 63.1916 12.5957Z" fill="#C67A88"/>
</g>
<path d="M23.6 6.04016C23.6 4.76416 22.556 3.72016 21.28 3.72016H2.72002C1.44403 3.72016 0.400024 4.76416 0.400024 6.04016V19.9602C0.400024 21.2361 1.44403 22.2801 2.72002 22.2801H21.28C22.556 22.2801 23.6 21.2361 23.6 19.9602V6.04016ZM21.28 6.04016L12 11.8401L2.72002 6.04016H21.28ZM21.28 19.9602H2.72002V8.36016L12 14.1602L21.28 8.36016V19.9602Z" fill="#C67A88"/>
<g clip-path="url(#clip1_1_33)">
<path d="M92.5 4.0709C95.5727 4.0709 95.9365 4.08437 97.1449 4.13828C98.268 4.1877 98.8744 4.37637 99.2787 4.53359C99.8133 4.74023 100.2 4.9918 100.599 5.3916C101.004 5.7959 101.251 6.17773 101.457 6.7123C101.615 7.1166 101.803 7.72754 101.853 8.84609C101.907 10.059 101.92 10.4228 101.92 13.491C101.92 16.5637 101.907 16.9275 101.853 18.1359C101.803 19.259 101.615 19.8654 101.457 20.2697C101.251 20.8043 100.999 21.1906 100.599 21.5904C100.195 21.9947 99.8133 22.2418 99.2787 22.4484C98.8744 22.6057 98.2635 22.7943 97.1449 22.8437C95.932 22.8977 95.5682 22.9111 92.5 22.9111C89.4273 22.9111 89.0635 22.8977 87.8551 22.8437C86.732 22.7943 86.1256 22.6057 85.7213 22.4484C85.1867 22.2418 84.8004 21.9902 84.4006 21.5904C83.9963 21.1861 83.7492 20.8043 83.5426 20.2697C83.3853 19.8654 83.1967 19.2545 83.1473 18.1359C83.0934 16.923 83.0799 16.5592 83.0799 13.491C83.0799 10.4184 83.0934 10.0545 83.1473 8.84609C83.1967 7.72305 83.3853 7.1166 83.5426 6.7123C83.7492 6.17773 84.0008 5.79141 84.4006 5.3916C84.8049 4.9873 85.1867 4.74023 85.7213 4.53359C86.1256 4.37637 86.7365 4.1877 87.8551 4.13828C89.0635 4.08437 89.4273 4.0709 92.5 4.0709ZM92.5 2C89.3779 2 88.9871 2.01348 87.7607 2.06738C86.5389 2.12129 85.6988 2.31895 84.9711 2.60195C84.2119 2.89844 83.5695 3.28926 82.9316 3.93164C82.2893 4.56953 81.8984 5.21191 81.602 5.9666C81.3189 6.69883 81.1213 7.53437 81.0674 8.75625C81.0135 9.98711 81 10.3779 81 13.5C81 16.6221 81.0135 17.0129 81.0674 18.2393C81.1213 19.4611 81.3189 20.3012 81.602 21.0289C81.8984 21.7881 82.2893 22.4305 82.9316 23.0684C83.5695 23.7062 84.2119 24.1016 84.9666 24.3936C85.6988 24.6766 86.5344 24.8742 87.7562 24.9281C88.9826 24.982 89.3734 24.9955 92.4955 24.9955C95.6176 24.9955 96.0084 24.982 97.2348 24.9281C98.4566 24.8742 99.2967 24.6766 100.024 24.3936C100.779 24.1016 101.422 23.7062 102.059 23.0684C102.697 22.4305 103.093 21.7881 103.385 21.0334C103.668 20.3012 103.865 19.4656 103.919 18.2438C103.973 17.0174 103.986 16.6266 103.986 13.5045C103.986 10.3824 103.973 9.9916 103.919 8.76523C103.865 7.54336 103.668 6.70332 103.385 5.97559C103.102 5.21191 102.711 4.56953 102.068 3.93164C101.431 3.29375 100.788 2.89844 100.033 2.60645C99.3012 2.32344 98.4656 2.12578 97.2438 2.07187C96.0129 2.01348 95.6221 2 92.5 2Z" fill="#C67A88"/>
<path d="M92.5 7.59277C89.2387 7.59277 86.5928 10.2387 86.5928 13.5C86.5928 16.7613 89.2387 19.4072 92.5 19.4072C95.7613 19.4072 98.4072 16.7613 98.4072 13.5C98.4072 10.2387 95.7613 7.59277 92.5 7.59277ZM92.5 17.3318C90.3842 17.3318 88.6682 15.6158 88.6682 13.5C88.6682 11.3842 90.3842 9.66816 92.5 9.66816C94.6158 9.66816 96.3318 11.3842 96.3318 13.5C96.3318 15.6158 94.6158 17.3318 92.5 17.3318Z" fill="#C67A88"/>
<path d="M100.02 7.35909C100.02 8.12276 99.4 8.73819 98.6408 8.73819C97.8771 8.73819 97.2617 8.11827 97.2617 7.35909C97.2617 6.59541 97.8816 5.97998 98.6408 5.97998C99.4 5.97998 100.02 6.5999 100.02 7.35909Z" fill="#C67A88"/>
</g>
<defs>
<clipPath id="clip0_1_33">
<rect width="24" height="24" fill="white" transform="translate(40 1)"/>
</clipPath>
<clipPath id="clip1_1_33">
<rect width="23" height="23" fill="white" transform="translate(81 2)"/>
</clipPath>
</defs>
</svg>
